<svg xmlns="http://www.w3.org/2000/svg" width="65" height="65" fill="none"><g clip-path="url(#a)"><mask id="b" width="65" height="65" x="0" y="0" maskUnits="userSpaceOnUse" style="mask-type:luminance"><path fill="#fff" d="M65 0H0v65h65z"/></mask><g mask="url(#b)"><path fill="#8951ff" d="M21.666 41.27c0 1.139.924 2.063 2.064 2.064h19.604v19.604c0 1.139-.925 2.061-2.065 2.061H21.666C9.7 65 0 55.3 0 43.334s9.7-21.668 21.666-21.668zM43.334 0c11.965 0 21.665 9.7 21.665 21.666 0 11.592-9.102 21.058-20.55 21.639l-1.115.029V23.73c0-1.14-.925-2.064-2.065-2.064H21.666V2.064C21.666.924 22.59 0 23.73 0z"/><path fill="#cb3cff" d="M23.498 0c-1.012 0-1.831.82-1.831 1.831v19.836h19.835c1.012 0 1.831.82 1.831 1.83v19.836C55.3 43.333 65 33.633 65 21.667S55.3 0 43.334 0z"/></g></g><defs><clipPath id="a"><path fill="#fff" d="M0 0h65v65H0z"/></clipPath></defs></svg>