<svg xmlns="http://www.w3.org/2000/svg" width="50" height="50" fill="none"><path stroke="#aeb9e1" stroke-linejoin="round" stroke-width="2" d="M19.792 39.583h-8.09c-1.548 0-2.553-1.63-1.86-3.015l1.779-3.558a8.3 8.3 0 0 0 .88-3.726v-6.367c0-4.167 2.083-12.5 12.5-12.5s12.5 8.333 12.5 12.5v6.367c0 1.294.3 2.569.88 3.726l1.779 3.558c.692 1.386-.315 3.015-1.864 3.015H30.21m-10.417 0c0 4.167 2.083 6.25 5.208 6.25s5.209-2.083 5.209-6.25m-10.417 0H30.21"/><path stroke="#aeb9e1" stroke-linecap="round" stroke-linejoin="round" stroke-width="2" d="M25 10.417V6.25"/></svg>