<svg xmlns="http://www.w3.org/2000/svg" width="43" height="43" fill="none"><g filter="url(#a)"><path fill="#aeb9e1" fill-rule="evenodd" d="M32.034 25.579c-3.15.926-4.725 1.389-5.835 2.497-1.11 1.109-1.573 2.683-2.5 5.83l-1.075 3.656C21.557 41.187 21.024 43 20 43c-1.023 0-1.557-1.813-2.624-5.438L16.3 33.906c-.926-3.147-1.39-4.721-2.499-5.83s-2.685-1.571-5.835-2.497l-1.392-.41C2.152 23.87-.059 23.22.001 22.14s2.334-1.482 6.882-2.284c3.661-.646 5.492-.968 6.799-2.136 1.306-1.168 1.83-2.947 2.877-6.506l.817-2.775C18.443 4.813 18.976 3 20 3c1.023 0 1.557 1.813 2.624 5.438l.817 2.775c1.047 3.559 1.57 5.338 2.877 6.506s3.138 1.49 6.799 2.136c4.547.802 6.822 1.203 6.882 2.284s-2.151 1.731-6.573 3.03z" clip-rule="evenodd"/></g><defs><filter id="a" width="43" height="43" x="0" y="0" color-interpolation-filters="sRGB" filterUnits="userSpaceOnUse"><feFlood flood-opacity="0" result="BackgroundImageFix"/><feColorMatrix in="SourceAlpha" result="hardAlpha" values="0 0 0 0 0 0 0 0 0 0 0 0 0 0 0 0 0 0 127 0"/><feOffset dx="3" dy="-3"/><feComposite in2="hardAlpha" operator="out"/><feColorMatrix values="0 0 0 0 0.682353 0 0 0 0 0.72549 0 0 0 0 0.882353 0 0 0 0.5 0"/><feBlend in2="BackgroundImageFix" result="effect1_dropShadow_3400_486"/><feBlend in="SourceGraphic" in2="effect1_dropShadow_3400_486" result="shape"/></filter></defs></svg>